<svg xmlns="http://www.w3.org/2000/svg" x="0px" y="0px"
width="40" height="40"
viewBox="0 0 172 172"
style=" fill:#000000;"><g fill="none" fill-rule="nonzero" stroke="none" stroke-width="1" stroke-linecap="none" stroke-linejoin="miter" stroke-miterlimit="10" stroke-dasharray="" stroke-dashoffset="0" font-family="none" font-weight="none" font-size="none" text-anchor="none" style="mix-blend-mode: normal"><path d="M0,172v-172h172v172z" fill="none" stroke="none" stroke-linecap="butt"></path><g><path d="M34.4,165.55c-5.9254,0 -10.75,-4.8246 -10.75,-10.75v-137.6c0,-5.9254 4.8246,-10.75 10.75,-10.75h103.2c5.9254,0 10.75,4.8246 10.75,10.75v137.6c0,5.9254 -4.8246,10.75 -10.75,10.75z" fill="#000000" stroke="none" stroke-linecap="butt"></path><path d="M137.6,8.6c4.7429,0 8.6,3.8571 8.6,8.6v137.6c0,4.7429 -3.8571,8.6 -8.6,8.6h-103.2c-4.7429,0 -8.6,-3.8571 -8.6,-8.6v-137.6c0,-4.7429 3.8571,-8.6 8.6,-8.6h103.2M137.6,4.3h-103.2c-7.1251,0 -12.9,5.7749 -12.9,12.9v137.6c0,7.1251 5.7749,12.9 12.9,12.9h103.2c7.1251,0 12.9,-5.7749 12.9,-12.9v-137.6c0,-7.1251 -5.7749,-12.9 -12.9,-12.9z" fill="#333333" stroke="none" stroke-linecap="butt"></path><path d="M38.7,21.5h94.6v120.4h-94.6z" fill="#ffffff" stroke="none" stroke-linecap="butt"></path><path d="M66.65,152.65h38.7M53.75,40.85h64.5M53.75,62.35h64.5M53.75,75.25h47.3M53.75,88.15h64.5M53.75,101.05h47.3M53.75,113.95h64.5" fill="none" stroke="#333333" stroke-linecap="round"></path></g></g></svg>